<mxfile host="app.diagrams.net" modified="2023-10-22T16:24:41.846Z" agent="Mozilla/5.0 (Windows NT 10.0; Win64; x64) AppleWebKit/537.36 (KHTML, like Gecko) Chrome/116.0.0.0 Safari/537.36 OPR/102.0.0.0" etag="6mtYh1PxHnkhLHxIU742" version="22.0.6" type="device">
  <diagram name="Página-1" id="TzQGWhrRq3P_4GPnMDOJ">
    <mxGraphModel dx="1764" dy="1064" grid="0" gridSize="10" guides="1" tooltips="1" connect="1" arrows="1" fold="1" page="0" pageScale="1" pageWidth="827" pageHeight="1169" math="0" shadow="0">
      <root>
        <mxCell id="0" />
        <mxCell id="1" parent="0" />
        <mxCell id="eNKc9XrcHKWjU5zMkzVL-1" value="" style="rounded=0;whiteSpace=wrap;html=1;labelBackgroundColor=none;" parent="1" vertex="1">
          <mxGeometry x="130" y="200" width="700" height="820" as="geometry" />
        </mxCell>
        <mxCell id="eNKc9XrcHKWjU5zMkzVL-2" value="" style="rounded=0;whiteSpace=wrap;html=1;labelBackgroundColor=none;" parent="1" vertex="1">
          <mxGeometry x="160" y="160" width="200" height="40" as="geometry" />
        </mxCell>
        <mxCell id="eNKc9XrcHKWjU5zMkzVL-3" value="Representante Legal" style="shape=umlActor;verticalLabelPosition=bottom;verticalAlign=top;html=1;outlineConnect=0;labelBackgroundColor=none;" parent="1" vertex="1">
          <mxGeometry x="50" y="270" width="30" height="60" as="geometry" />
        </mxCell>
        <mxCell id="eNKc9XrcHKWjU5zMkzVL-8" value="Sistema da Heath Touch" style="text;html=1;strokeColor=none;fillColor=none;align=center;verticalAlign=middle;whiteSpace=wrap;rounded=0;labelBackgroundColor=none;" parent="1" vertex="1">
          <mxGeometry x="175" y="165" width="170" height="30" as="geometry" />
        </mxCell>
        <mxCell id="eNKc9XrcHKWjU5zMkzVL-9" value="Cadastro &lt;br&gt;Gerente de Ti&amp;nbsp;" style="ellipse;whiteSpace=wrap;html=1;labelBackgroundColor=none;" parent="1" vertex="1">
          <mxGeometry x="340" y="220" width="130" height="50" as="geometry" />
        </mxCell>
        <mxCell id="eNKc9XrcHKWjU5zMkzVL-10" value="Atualização de Perfil" style="ellipse;whiteSpace=wrap;html=1;labelBackgroundColor=none;" parent="1" vertex="1">
          <mxGeometry x="545" y="350" width="120" height="50" as="geometry" />
        </mxCell>
        <mxCell id="IYecwTDi1rLfYt1T4-kQ-1" value="Visualiza&lt;br&gt;Dashboard" style="ellipse;whiteSpace=wrap;html=1;labelBackgroundColor=none;" parent="1" vertex="1">
          <mxGeometry x="540" y="280" width="120" height="50" as="geometry" />
        </mxCell>
        <mxCell id="IYecwTDi1rLfYt1T4-kQ-3" value="" style="endArrow=none;html=1;rounded=0;exitX=0.5;exitY=0.5;exitDx=0;exitDy=0;exitPerimeter=0;entryX=0;entryY=0.5;entryDx=0;entryDy=0;labelBackgroundColor=none;fontColor=default;" parent="1" source="eNKc9XrcHKWjU5zMkzVL-3" target="eNKc9XrcHKWjU5zMkzVL-9" edge="1">
          <mxGeometry width="50" height="50" relative="1" as="geometry">
            <mxPoint x="190" y="330" as="sourcePoint" />
            <mxPoint x="240" y="280" as="targetPoint" />
          </mxGeometry>
        </mxCell>
        <mxCell id="IYecwTDi1rLfYt1T4-kQ-4" value="" style="endArrow=none;html=1;rounded=0;exitX=0.5;exitY=0.5;exitDx=0;exitDy=0;exitPerimeter=0;entryX=0;entryY=0.5;entryDx=0;entryDy=0;labelBackgroundColor=none;fontColor=default;" parent="1" source="eNKc9XrcHKWjU5zMkzVL-3" target="eNKc9XrcHKWjU5zMkzVL-10" edge="1">
          <mxGeometry width="50" height="50" relative="1" as="geometry">
            <mxPoint x="105" y="310" as="sourcePoint" />
            <mxPoint x="330" y="275" as="targetPoint" />
          </mxGeometry>
        </mxCell>
        <mxCell id="IYecwTDi1rLfYt1T4-kQ-5" value="" style="endArrow=none;html=1;rounded=0;exitX=0.5;exitY=0.5;exitDx=0;exitDy=0;exitPerimeter=0;entryX=0;entryY=0.5;entryDx=0;entryDy=0;labelBackgroundColor=none;fontColor=default;" parent="1" source="eNKc9XrcHKWjU5zMkzVL-3" target="IYecwTDi1rLfYt1T4-kQ-1" edge="1">
          <mxGeometry width="50" height="50" relative="1" as="geometry">
            <mxPoint x="115" y="320" as="sourcePoint" />
            <mxPoint x="340" y="285" as="targetPoint" />
          </mxGeometry>
        </mxCell>
        <mxCell id="IYecwTDi1rLfYt1T4-kQ-6" value="" style="endArrow=none;html=1;rounded=0;exitX=0.5;exitY=0.5;exitDx=0;exitDy=0;exitPerimeter=0;entryX=1;entryY=0.5;entryDx=0;entryDy=0;labelBackgroundColor=none;fontColor=default;" parent="1" source="eNKc9XrcHKWjU5zMkzVL-5" target="eNKc9XrcHKWjU5zMkzVL-10" edge="1">
          <mxGeometry width="50" height="50" relative="1" as="geometry">
            <mxPoint x="250" y="500" as="sourcePoint" />
            <mxPoint x="300" y="450" as="targetPoint" />
          </mxGeometry>
        </mxCell>
        <mxCell id="IYecwTDi1rLfYt1T4-kQ-7" value="" style="endArrow=none;html=1;rounded=0;exitX=0.5;exitY=0.5;exitDx=0;exitDy=0;exitPerimeter=0;entryX=1;entryY=0.5;entryDx=0;entryDy=0;labelBackgroundColor=none;fontColor=default;" parent="1" source="eNKc9XrcHKWjU5zMkzVL-5" target="IYecwTDi1rLfYt1T4-kQ-1" edge="1">
          <mxGeometry width="50" height="50" relative="1" as="geometry">
            <mxPoint x="105" y="510" as="sourcePoint" />
            <mxPoint x="320" y="450" as="targetPoint" />
          </mxGeometry>
        </mxCell>
        <mxCell id="IYecwTDi1rLfYt1T4-kQ-9" value="" style="group;labelBackgroundColor=none;" parent="1" vertex="1" connectable="0">
          <mxGeometry x="880" y="380" width="30" height="270" as="geometry" />
        </mxCell>
        <mxCell id="eNKc9XrcHKWjU5zMkzVL-4" value="Gerente de TI" style="shape=umlActor;verticalLabelPosition=bottom;verticalAlign=top;html=1;outlineConnect=0;labelBackgroundColor=none;" parent="IYecwTDi1rLfYt1T4-kQ-9" vertex="1">
          <mxGeometry y="210" width="30" height="60" as="geometry" />
        </mxCell>
        <mxCell id="eNKc9XrcHKWjU5zMkzVL-5" value="Equipe de TI" style="shape=umlActor;verticalLabelPosition=bottom;verticalAlign=top;html=1;outlineConnect=0;labelBackgroundColor=none;" parent="IYecwTDi1rLfYt1T4-kQ-9" vertex="1">
          <mxGeometry width="30" height="60" as="geometry" />
        </mxCell>
        <mxCell id="eNKc9XrcHKWjU5zMkzVL-7" value="" style="endArrow=classic;html=1;rounded=0;labelBackgroundColor=none;fontColor=default;" parent="IYecwTDi1rLfYt1T4-kQ-9" edge="1">
          <mxGeometry width="50" height="50" relative="1" as="geometry">
            <mxPoint x="14.289999999999964" y="180" as="sourcePoint" />
            <mxPoint x="14.289999999999964" y="100" as="targetPoint" />
          </mxGeometry>
        </mxCell>
        <mxCell id="IYecwTDi1rLfYt1T4-kQ-14" value="" style="endArrow=none;html=1;rounded=0;entryX=0.5;entryY=0.5;entryDx=0;entryDy=0;entryPerimeter=0;exitX=1;exitY=0.5;exitDx=0;exitDy=0;labelBackgroundColor=none;fontColor=default;" parent="1" source="IYecwTDi1rLfYt1T4-kQ-13" target="eNKc9XrcHKWjU5zMkzVL-4" edge="1">
          <mxGeometry width="50" height="50" relative="1" as="geometry">
            <mxPoint x="320" y="600" as="sourcePoint" />
            <mxPoint x="370" y="550" as="targetPoint" />
          </mxGeometry>
        </mxCell>
        <mxCell id="IYecwTDi1rLfYt1T4-kQ-15" value="" style="endArrow=none;html=1;rounded=0;entryX=0.5;entryY=0.5;entryDx=0;entryDy=0;entryPerimeter=0;exitX=1;exitY=0.5;exitDx=0;exitDy=0;labelBackgroundColor=none;fontColor=default;" parent="1" source="IYecwTDi1rLfYt1T4-kQ-11" target="eNKc9XrcHKWjU5zMkzVL-4" edge="1">
          <mxGeometry width="50" height="50" relative="1" as="geometry">
            <mxPoint x="470" y="615" as="sourcePoint" />
            <mxPoint x="725" y="630" as="targetPoint" />
          </mxGeometry>
        </mxCell>
        <mxCell id="IYecwTDi1rLfYt1T4-kQ-16" value="" style="endArrow=none;html=1;rounded=0;entryX=0.5;entryY=0.5;entryDx=0;entryDy=0;entryPerimeter=0;exitX=1;exitY=0.5;exitDx=0;exitDy=0;labelBackgroundColor=none;fontColor=default;" parent="1" source="IYecwTDi1rLfYt1T4-kQ-12" target="eNKc9XrcHKWjU5zMkzVL-4" edge="1">
          <mxGeometry width="50" height="50" relative="1" as="geometry">
            <mxPoint x="480" y="625" as="sourcePoint" />
            <mxPoint x="735" y="640" as="targetPoint" />
          </mxGeometry>
        </mxCell>
        <mxCell id="bLp1pUF_GGz9j-9rpTH8-1" value="Health Touch" style="shape=umlActor;verticalLabelPosition=bottom;verticalAlign=top;html=1;outlineConnect=0;labelBackgroundColor=none;" parent="1" vertex="1">
          <mxGeometry x="60" y="570" width="30" height="60" as="geometry" />
        </mxCell>
        <mxCell id="bLp1pUF_GGz9j-9rpTH8-7" value="Captura dados da máquina" style="ellipse;whiteSpace=wrap;html=1;labelBackgroundColor=none;" parent="1" vertex="1">
          <mxGeometry x="280" y="560" width="120" height="50" as="geometry" />
        </mxCell>
        <mxCell id="bLp1pUF_GGz9j-9rpTH8-8" value="Tratar os dados&amp;nbsp;" style="ellipse;whiteSpace=wrap;html=1;labelBackgroundColor=none;" parent="1" vertex="1">
          <mxGeometry x="175" y="630" width="120" height="50" as="geometry" />
        </mxCell>
        <mxCell id="bLp1pUF_GGz9j-9rpTH8-10" value="" style="endArrow=none;html=1;rounded=0;exitX=0.5;exitY=0.5;exitDx=0;exitDy=0;exitPerimeter=0;entryX=0;entryY=0.5;entryDx=0;entryDy=0;labelBackgroundColor=none;fontColor=default;" parent="1" source="bLp1pUF_GGz9j-9rpTH8-1" target="bLp1pUF_GGz9j-9rpTH8-7" edge="1">
          <mxGeometry width="50" height="50" relative="1" as="geometry">
            <mxPoint x="240" y="660" as="sourcePoint" />
            <mxPoint x="290" y="610" as="targetPoint" />
          </mxGeometry>
        </mxCell>
        <mxCell id="bLp1pUF_GGz9j-9rpTH8-11" value="" style="endArrow=none;html=1;rounded=0;entryX=0;entryY=0.5;entryDx=0;entryDy=0;exitX=0.5;exitY=0.5;exitDx=0;exitDy=0;exitPerimeter=0;labelBackgroundColor=none;fontColor=default;" parent="1" source="bLp1pUF_GGz9j-9rpTH8-1" target="bLp1pUF_GGz9j-9rpTH8-8" edge="1">
          <mxGeometry width="50" height="50" relative="1" as="geometry">
            <mxPoint x="80" y="600" as="sourcePoint" />
            <mxPoint x="185" y="555" as="targetPoint" />
          </mxGeometry>
        </mxCell>
        <mxCell id="dobiGwJOMX_CLML3NSXw-3" value="" style="group;labelBackgroundColor=none;" parent="1" vertex="1" connectable="0">
          <mxGeometry x="175" y="779.998438374809" width="595" height="200.00156162519102" as="geometry" />
        </mxCell>
        <mxCell id="bLp1pUF_GGz9j-9rpTH8-3" value="" style="group;labelBackgroundColor=none;" parent="dobiGwJOMX_CLML3NSXw-3" vertex="1" connectable="0">
          <mxGeometry x="245" width="350" height="200.00156162519102" as="geometry" />
        </mxCell>
        <mxCell id="IYecwTDi1rLfYt1T4-kQ-11" value="Cadastro Equipe de TI" style="ellipse;whiteSpace=wrap;html=1;labelBackgroundColor=none;" parent="bLp1pUF_GGz9j-9rpTH8-3" vertex="1">
          <mxGeometry x="220" y="74.98156162519103" width="130" height="50" as="geometry" />
        </mxCell>
        <mxCell id="IYecwTDi1rLfYt1T4-kQ-13" value="Cadastro de&lt;br&gt;Máquinas" style="ellipse;whiteSpace=wrap;html=1;labelBackgroundColor=none;" parent="bLp1pUF_GGz9j-9rpTH8-3" vertex="1">
          <mxGeometry x="220" y="4.981561625191034" width="130" height="50" as="geometry" />
        </mxCell>
        <mxCell id="IYecwTDi1rLfYt1T4-kQ-19" value="" style="endArrow=classic;html=1;rounded=0;exitX=0;exitY=0.5;exitDx=0;exitDy=0;entryX=1;entryY=0.5;entryDx=0;entryDy=0;dashed=1;labelBackgroundColor=none;fontColor=default;" parent="bLp1pUF_GGz9j-9rpTH8-3" source="IYecwTDi1rLfYt1T4-kQ-13" target="IYecwTDi1rLfYt1T4-kQ-20" edge="1">
          <mxGeometry width="50" height="50" relative="1" as="geometry">
            <mxPoint x="150" y="-35.018438374808966" as="sourcePoint" />
            <mxPoint x="200" y="-85.01843837480897" as="targetPoint" />
          </mxGeometry>
        </mxCell>
        <mxCell id="IYecwTDi1rLfYt1T4-kQ-20" value="Visualização e Edição" style="ellipse;whiteSpace=wrap;html=1;labelBackgroundColor=none;" parent="bLp1pUF_GGz9j-9rpTH8-3" vertex="1">
          <mxGeometry x="-10" width="130" height="54.98" as="geometry" />
        </mxCell>
        <mxCell id="IYecwTDi1rLfYt1T4-kQ-24" value="&amp;lt;&amp;lt;include&amp;gt;&amp;gt;" style="text;html=1;strokeColor=none;fillColor=none;align=center;verticalAlign=middle;whiteSpace=wrap;rounded=0;rotation=0;labelBackgroundColor=none;" parent="bLp1pUF_GGz9j-9rpTH8-3" vertex="1">
          <mxGeometry x="150" y="4.981561625191034" width="60" height="30" as="geometry" />
        </mxCell>
        <mxCell id="IYecwTDi1rLfYt1T4-kQ-25" value="&amp;lt;&amp;lt;include&amp;gt;&amp;gt;" style="text;html=1;strokeColor=none;fillColor=none;align=center;verticalAlign=middle;whiteSpace=wrap;rounded=0;rotation=0;labelBackgroundColor=none;" parent="bLp1pUF_GGz9j-9rpTH8-3" vertex="1">
          <mxGeometry x="140" y="74.98156162519103" width="60" height="30" as="geometry" />
        </mxCell>
        <mxCell id="IYecwTDi1rLfYt1T4-kQ-26" value="&amp;lt;&amp;lt;include&amp;gt;&amp;gt;" style="text;html=1;strokeColor=none;fillColor=none;align=center;verticalAlign=middle;whiteSpace=wrap;rounded=0;rotation=0;labelBackgroundColor=none;" parent="bLp1pUF_GGz9j-9rpTH8-3" vertex="1">
          <mxGeometry x="140" y="150.00156162519104" width="60" height="30" as="geometry" />
        </mxCell>
        <mxCell id="bLp1pUF_GGz9j-9rpTH8-4" value="Visualização e Edição" style="ellipse;whiteSpace=wrap;html=1;labelBackgroundColor=none;" parent="bLp1pUF_GGz9j-9rpTH8-3" vertex="1">
          <mxGeometry x="-10" y="70" width="130" height="54.98" as="geometry" />
        </mxCell>
        <mxCell id="IYecwTDi1rLfYt1T4-kQ-21" value="" style="endArrow=classic;html=1;rounded=0;exitX=0;exitY=0.5;exitDx=0;exitDy=0;entryX=1;entryY=0.5;entryDx=0;entryDy=0;dashed=1;labelBackgroundColor=none;fontColor=default;" parent="bLp1pUF_GGz9j-9rpTH8-3" source="IYecwTDi1rLfYt1T4-kQ-11" target="bLp1pUF_GGz9j-9rpTH8-4" edge="1">
          <mxGeometry width="50" height="50" relative="1" as="geometry">
            <mxPoint x="230" y="39.981561625191034" as="sourcePoint" />
            <mxPoint x="130" y="59.981561625191034" as="targetPoint" />
          </mxGeometry>
        </mxCell>
        <mxCell id="IYecwTDi1rLfYt1T4-kQ-12" value="Cadastro Setores" style="ellipse;whiteSpace=wrap;html=1;labelBackgroundColor=none;" parent="bLp1pUF_GGz9j-9rpTH8-3" vertex="1">
          <mxGeometry x="220" y="150.00156162519102" width="130" height="50" as="geometry" />
        </mxCell>
        <mxCell id="bLp1pUF_GGz9j-9rpTH8-5" value="Visualização e Edição" style="ellipse;whiteSpace=wrap;html=1;labelBackgroundColor=none;" parent="bLp1pUF_GGz9j-9rpTH8-3" vertex="1">
          <mxGeometry x="-10" y="150.00156162519102" width="130" height="50" as="geometry" />
        </mxCell>
        <mxCell id="IYecwTDi1rLfYt1T4-kQ-22" value="" style="endArrow=classic;html=1;rounded=0;exitX=0;exitY=0.5;exitDx=0;exitDy=0;entryX=1;entryY=0.5;entryDx=0;entryDy=0;dashed=1;labelBackgroundColor=none;fontColor=default;" parent="bLp1pUF_GGz9j-9rpTH8-3" source="IYecwTDi1rLfYt1T4-kQ-12" target="bLp1pUF_GGz9j-9rpTH8-5" edge="1">
          <mxGeometry width="50" height="50" relative="1" as="geometry">
            <mxPoint x="240" y="-80.01843837480897" as="sourcePoint" />
            <mxPoint x="140" y="-60.018438374808966" as="targetPoint" />
          </mxGeometry>
        </mxCell>
        <mxCell id="dobiGwJOMX_CLML3NSXw-4" value="API Kotlin" style="ellipse;whiteSpace=wrap;html=1;labelBackgroundColor=none;" parent="1" vertex="1">
          <mxGeometry x="450" y="480" width="80" height="40" as="geometry" />
        </mxCell>
        <mxCell id="dobiGwJOMX_CLML3NSXw-5" value="API Python" style="ellipse;whiteSpace=wrap;html=1;labelBackgroundColor=none;" parent="1" vertex="1">
          <mxGeometry x="450" y="610" width="80" height="40" as="geometry" />
        </mxCell>
        <mxCell id="dobiGwJOMX_CLML3NSXw-8" value="" style="endArrow=classic;html=1;rounded=0;entryX=0;entryY=0.5;entryDx=0;entryDy=0;dashed=1;exitX=1;exitY=1;exitDx=0;exitDy=0;labelBackgroundColor=none;fontColor=default;" parent="1" source="bLp1pUF_GGz9j-9rpTH8-7" target="dobiGwJOMX_CLML3NSXw-5" edge="1">
          <mxGeometry width="50" height="50" relative="1" as="geometry">
            <mxPoint x="305" y="819.998438374809" as="sourcePoint" />
            <mxPoint x="420" y="886.998438374809" as="targetPoint" />
          </mxGeometry>
        </mxCell>
        <mxCell id="dobiGwJOMX_CLML3NSXw-9" value="" style="endArrow=classic;html=1;rounded=0;entryX=0;entryY=0.5;entryDx=0;entryDy=0;dashed=1;exitX=1;exitY=0;exitDx=0;exitDy=0;labelBackgroundColor=none;fontColor=default;" parent="1" source="bLp1pUF_GGz9j-9rpTH8-7" target="dobiGwJOMX_CLML3NSXw-4" edge="1">
          <mxGeometry width="50" height="50" relative="1" as="geometry">
            <mxPoint x="392" y="573" as="sourcePoint" />
            <mxPoint x="443" y="600" as="targetPoint" />
          </mxGeometry>
        </mxCell>
        <mxCell id="dobiGwJOMX_CLML3NSXw-11" value="RAM" style="ellipse;whiteSpace=wrap;html=1;labelBackgroundColor=none;" parent="1" vertex="1">
          <mxGeometry x="670" y="710" width="80" height="40" as="geometry" />
        </mxCell>
        <mxCell id="dobiGwJOMX_CLML3NSXw-12" value="CPU" style="ellipse;whiteSpace=wrap;html=1;labelBackgroundColor=none;" parent="1" vertex="1">
          <mxGeometry x="660" y="560" width="80" height="40" as="geometry" />
        </mxCell>
        <mxCell id="dobiGwJOMX_CLML3NSXw-13" value="DISCO" style="ellipse;whiteSpace=wrap;html=1;labelBackgroundColor=none;" parent="1" vertex="1">
          <mxGeometry x="670" y="630" width="80" height="40" as="geometry" />
        </mxCell>
        <mxCell id="dobiGwJOMX_CLML3NSXw-14" value="" style="endArrow=classic;html=1;rounded=0;entryX=1;entryY=1;entryDx=0;entryDy=0;dashed=1;labelBackgroundColor=none;fontColor=default;" parent="1" source="dobiGwJOMX_CLML3NSXw-11" target="dobiGwJOMX_CLML3NSXw-5" edge="1">
          <mxGeometry width="50" height="50" relative="1" as="geometry">
            <mxPoint x="392" y="573" as="sourcePoint" />
            <mxPoint x="453" y="650" as="targetPoint" />
          </mxGeometry>
        </mxCell>
        <mxCell id="dobiGwJOMX_CLML3NSXw-15" value="" style="endArrow=classic;html=1;rounded=0;entryX=1;entryY=0.5;entryDx=0;entryDy=0;dashed=1;labelBackgroundColor=none;fontColor=default;" parent="1" source="dobiGwJOMX_CLML3NSXw-13" target="dobiGwJOMX_CLML3NSXw-5" edge="1">
          <mxGeometry width="50" height="50" relative="1" as="geometry">
            <mxPoint x="544" y="692" as="sourcePoint" />
            <mxPoint x="521" y="664" as="targetPoint" />
          </mxGeometry>
        </mxCell>
        <mxCell id="dobiGwJOMX_CLML3NSXw-16" value="" style="endArrow=classic;html=1;rounded=0;dashed=1;exitX=0;exitY=0.5;exitDx=0;exitDy=0;labelBackgroundColor=none;fontColor=default;" parent="1" source="dobiGwJOMX_CLML3NSXw-12" target="dobiGwJOMX_CLML3NSXw-5" edge="1">
          <mxGeometry width="50" height="50" relative="1" as="geometry">
            <mxPoint x="554" y="702" as="sourcePoint" />
            <mxPoint x="531" y="674" as="targetPoint" />
          </mxGeometry>
        </mxCell>
        <mxCell id="dobiGwJOMX_CLML3NSXw-17" value="USB" style="ellipse;whiteSpace=wrap;html=1;labelBackgroundColor=none;" parent="1" vertex="1">
          <mxGeometry x="650" y="430" width="80" height="40" as="geometry" />
        </mxCell>
        <mxCell id="dobiGwJOMX_CLML3NSXw-18" value="" style="endArrow=classic;html=1;rounded=0;dashed=1;exitX=0;exitY=0.5;exitDx=0;exitDy=0;entryX=1;entryY=0;entryDx=0;entryDy=0;labelBackgroundColor=none;fontColor=default;" parent="1" source="dobiGwJOMX_CLML3NSXw-17" target="dobiGwJOMX_CLML3NSXw-4" edge="1">
          <mxGeometry width="50" height="50" relative="1" as="geometry">
            <mxPoint x="540" y="590" as="sourcePoint" />
            <mxPoint x="507" y="631" as="targetPoint" />
          </mxGeometry>
        </mxCell>
        <mxCell id="dobiGwJOMX_CLML3NSXw-19" value="Processos" style="ellipse;whiteSpace=wrap;html=1;labelBackgroundColor=none;" parent="1" vertex="1">
          <mxGeometry x="660" y="500" width="80" height="40" as="geometry" />
        </mxCell>
        <mxCell id="dobiGwJOMX_CLML3NSXw-20" value="" style="endArrow=classic;html=1;rounded=0;dashed=1;exitX=0;exitY=0.5;exitDx=0;exitDy=0;entryX=1;entryY=1;entryDx=0;entryDy=0;labelBackgroundColor=none;fontColor=default;" parent="1" source="dobiGwJOMX_CLML3NSXw-19" target="dobiGwJOMX_CLML3NSXw-4" edge="1">
          <mxGeometry width="50" height="50" relative="1" as="geometry">
            <mxPoint x="540" y="470" as="sourcePoint" />
            <mxPoint x="511" y="511" as="targetPoint" />
          </mxGeometry>
        </mxCell>
        <mxCell id="dobiGwJOMX_CLML3NSXw-21" value="Escolhe Plano" style="ellipse;whiteSpace=wrap;html=1;labelBackgroundColor=none;" parent="1" vertex="1">
          <mxGeometry x="140" y="400" width="130" height="50" as="geometry" />
        </mxCell>
        <mxCell id="dobiGwJOMX_CLML3NSXw-22" value="" style="endArrow=none;html=1;rounded=0;exitX=0.5;exitY=0.5;exitDx=0;exitDy=0;exitPerimeter=0;entryX=0;entryY=0.5;entryDx=0;entryDy=0;labelBackgroundColor=none;fontColor=default;" parent="1" source="eNKc9XrcHKWjU5zMkzVL-3" target="dobiGwJOMX_CLML3NSXw-21" edge="1">
          <mxGeometry width="50" height="50" relative="1" as="geometry">
            <mxPoint x="90" y="310" as="sourcePoint" />
            <mxPoint x="260" y="220" as="targetPoint" />
          </mxGeometry>
        </mxCell>
        <mxCell id="dobiGwJOMX_CLML3NSXw-23" value="Ultra" style="ellipse;whiteSpace=wrap;html=1;labelBackgroundColor=none;" parent="1" vertex="1">
          <mxGeometry x="280" y="355" width="80" height="40" as="geometry" />
        </mxCell>
        <mxCell id="dobiGwJOMX_CLML3NSXw-24" value="Plus" style="ellipse;whiteSpace=wrap;html=1;labelBackgroundColor=none;" parent="1" vertex="1">
          <mxGeometry x="360" y="405" width="80" height="40" as="geometry" />
        </mxCell>
        <mxCell id="dobiGwJOMX_CLML3NSXw-25" value="Prime" style="ellipse;whiteSpace=wrap;html=1;labelBackgroundColor=none;" parent="1" vertex="1">
          <mxGeometry x="280" y="470" width="80" height="40" as="geometry" />
        </mxCell>
        <mxCell id="dobiGwJOMX_CLML3NSXw-26" value="" style="endArrow=classic;html=1;rounded=0;dashed=1;exitX=0;exitY=0.5;exitDx=0;exitDy=0;entryX=1;entryY=0;entryDx=0;entryDy=0;labelBackgroundColor=none;fontColor=default;" parent="1" source="dobiGwJOMX_CLML3NSXw-23" target="dobiGwJOMX_CLML3NSXw-21" edge="1">
          <mxGeometry width="50" height="50" relative="1" as="geometry">
            <mxPoint x="540" y="470" as="sourcePoint" />
            <mxPoint x="498" y="496" as="targetPoint" />
          </mxGeometry>
        </mxCell>
        <mxCell id="dobiGwJOMX_CLML3NSXw-27" value="" style="endArrow=classic;html=1;rounded=0;dashed=1;entryX=1;entryY=0.5;entryDx=0;entryDy=0;labelBackgroundColor=none;fontColor=default;" parent="1" source="dobiGwJOMX_CLML3NSXw-24" target="dobiGwJOMX_CLML3NSXw-21" edge="1">
          <mxGeometry width="50" height="50" relative="1" as="geometry">
            <mxPoint x="290" y="385" as="sourcePoint" />
            <mxPoint x="261" y="417" as="targetPoint" />
          </mxGeometry>
        </mxCell>
        <mxCell id="dobiGwJOMX_CLML3NSXw-28" value="" style="endArrow=classic;html=1;rounded=0;dashed=1;exitX=0;exitY=0.5;exitDx=0;exitDy=0;entryX=1;entryY=1;entryDx=0;entryDy=0;labelBackgroundColor=none;fontColor=default;" parent="1" source="dobiGwJOMX_CLML3NSXw-25" target="dobiGwJOMX_CLML3NSXw-21" edge="1">
          <mxGeometry width="50" height="50" relative="1" as="geometry">
            <mxPoint x="300" y="395" as="sourcePoint" />
            <mxPoint x="271" y="427" as="targetPoint" />
          </mxGeometry>
        </mxCell>
        <mxCell id="dobiGwJOMX_CLML3NSXw-29" value="&lt;font style=&quot;font-size: 9px;&quot;&gt;&amp;lt;&amp;lt;extend&amp;gt;&amp;gt;&lt;/font&gt;" style="text;html=1;strokeColor=none;fillColor=none;align=center;verticalAlign=middle;whiteSpace=wrap;rounded=0;rotation=0;labelBackgroundColor=none;" parent="1" vertex="1">
          <mxGeometry x="250" y="440" width="60" height="30" as="geometry" />
        </mxCell>
        <mxCell id="dobiGwJOMX_CLML3NSXw-30" value="&lt;font style=&quot;font-size: 9px;&quot;&gt;&amp;lt;&amp;lt;extend&amp;gt;&amp;gt;&lt;/font&gt;" style="text;html=1;strokeColor=none;fillColor=none;align=center;verticalAlign=middle;whiteSpace=wrap;rounded=0;rotation=0;labelBackgroundColor=none;" parent="1" vertex="1">
          <mxGeometry x="280" y="400" width="60" height="30" as="geometry" />
        </mxCell>
        <mxCell id="dobiGwJOMX_CLML3NSXw-31" value="&lt;font style=&quot;font-size: 9px;&quot;&gt;&amp;lt;&amp;lt;extend&amp;gt;&amp;gt;&lt;/font&gt;" style="text;html=1;strokeColor=none;fillColor=none;align=center;verticalAlign=middle;whiteSpace=wrap;rounded=0;rotation=0;labelBackgroundColor=none;" parent="1" vertex="1">
          <mxGeometry x="220" y="365" width="60" height="30" as="geometry" />
        </mxCell>
        <mxCell id="dobiGwJOMX_CLML3NSXw-32" value="&lt;font style=&quot;font-size: 9px;&quot;&gt;&amp;lt;&amp;lt;extend&amp;gt;&amp;gt;&lt;/font&gt;" style="text;html=1;strokeColor=none;fillColor=none;align=center;verticalAlign=middle;whiteSpace=wrap;rounded=0;rotation=-16;labelBackgroundColor=none;" parent="1" vertex="1">
          <mxGeometry x="540" y="445" width="60" height="30" as="geometry" />
        </mxCell>
        <mxCell id="dobiGwJOMX_CLML3NSXw-33" value="&lt;font style=&quot;font-size: 9px;&quot;&gt;&amp;lt;&amp;lt;extend&amp;gt;&amp;gt;&lt;/font&gt;" style="text;html=1;strokeColor=none;fillColor=none;align=center;verticalAlign=middle;whiteSpace=wrap;rounded=0;rotation=0;labelBackgroundColor=none;" parent="1" vertex="1">
          <mxGeometry x="540" y="490" width="60" height="30" as="geometry" />
        </mxCell>
        <mxCell id="dobiGwJOMX_CLML3NSXw-34" value="&lt;font style=&quot;font-size: 9px;&quot;&gt;&amp;lt;&amp;lt;extend&amp;gt;&amp;gt;&lt;/font&gt;" style="text;html=1;strokeColor=none;fillColor=none;align=center;verticalAlign=middle;whiteSpace=wrap;rounded=0;rotation=0;labelBackgroundColor=none;" parent="1" vertex="1">
          <mxGeometry x="570" y="610" width="60" height="30" as="geometry" />
        </mxCell>
        <mxCell id="dobiGwJOMX_CLML3NSXw-35" value="&lt;font style=&quot;font-size: 9px;&quot;&gt;&amp;lt;&amp;lt;extend&amp;gt;&amp;gt;&lt;/font&gt;" style="text;html=1;strokeColor=none;fillColor=none;align=center;verticalAlign=middle;whiteSpace=wrap;rounded=0;rotation=-15;labelBackgroundColor=none;" parent="1" vertex="1">
          <mxGeometry x="545" y="570" width="60" height="30" as="geometry" />
        </mxCell>
        <mxCell id="dobiGwJOMX_CLML3NSXw-36" value="&lt;font style=&quot;font-size: 9px;&quot;&gt;&amp;lt;&amp;lt;extend&amp;gt;&amp;gt;&lt;/font&gt;" style="text;html=1;strokeColor=none;fillColor=none;align=center;verticalAlign=middle;whiteSpace=wrap;rounded=0;rotation=25;labelBackgroundColor=none;" parent="1" vertex="1">
          <mxGeometry x="560" y="650" width="60" height="30" as="geometry" />
        </mxCell>
        <mxCell id="dobiGwJOMX_CLML3NSXw-39" value="&amp;lt;&amp;lt;include&amp;gt;&amp;gt;" style="text;html=1;strokeColor=none;fillColor=none;align=center;verticalAlign=middle;whiteSpace=wrap;rounded=0;rotation=-45;labelBackgroundColor=none;" parent="1" vertex="1">
          <mxGeometry x="380" y="510" width="60" height="30" as="geometry" />
        </mxCell>
        <mxCell id="dobiGwJOMX_CLML3NSXw-42" value="&amp;lt;&amp;lt;include&amp;gt;&amp;gt;" style="text;html=1;strokeColor=none;fillColor=none;align=center;verticalAlign=middle;whiteSpace=wrap;rounded=0;rotation=25;labelBackgroundColor=none;" parent="1" vertex="1">
          <mxGeometry x="390" y="595" width="60" height="30" as="geometry" />
        </mxCell>
        <mxCell id="O74vzvm6s8nXJKtiw7Px-12" value="" style="endArrow=none;html=1;rounded=0;exitX=0.5;exitY=0.5;exitDx=0;exitDy=0;exitPerimeter=0;entryX=1;entryY=1;entryDx=0;entryDy=0;labelBackgroundColor=none;fontColor=default;" edge="1" parent="1" source="eNKc9XrcHKWjU5zMkzVL-5" target="O74vzvm6s8nXJKtiw7Px-13">
          <mxGeometry width="50" height="50" relative="1" as="geometry">
            <mxPoint x="900" y="380" as="sourcePoint" />
            <mxPoint x="680" y="280" as="targetPoint" />
          </mxGeometry>
        </mxCell>
        <mxCell id="O74vzvm6s8nXJKtiw7Px-13" value="Acesso&lt;br&gt;HelpDesk" style="ellipse;whiteSpace=wrap;html=1;labelBackgroundColor=none;" vertex="1" parent="1">
          <mxGeometry x="620" y="220" width="130" height="50" as="geometry" />
        </mxCell>
        <mxCell id="O74vzvm6s8nXJKtiw7Px-15" value="&amp;lt;&amp;lt;include&amp;gt;&amp;gt;" style="text;html=1;strokeColor=none;fillColor=none;align=center;verticalAlign=middle;whiteSpace=wrap;rounded=0;rotation=25;labelBackgroundColor=none;" vertex="1" parent="1">
          <mxGeometry x="300" y="650" width="60" height="30" as="geometry" />
        </mxCell>
        <mxCell id="O74vzvm6s8nXJKtiw7Px-18" value="" style="endArrow=classic;html=1;rounded=0;dashed=1;exitX=0.996;exitY=0.574;exitDx=0;exitDy=0;exitPerimeter=0;entryX=0;entryY=0.5;entryDx=0;entryDy=0;labelBackgroundColor=none;fontColor=default;" edge="1" parent="1" source="bLp1pUF_GGz9j-9rpTH8-8" target="O74vzvm6s8nXJKtiw7Px-19">
          <mxGeometry width="50" height="50" relative="1" as="geometry">
            <mxPoint x="313" y="650" as="sourcePoint" />
            <mxPoint x="380" y="583" as="targetPoint" />
          </mxGeometry>
        </mxCell>
        <mxCell id="O74vzvm6s8nXJKtiw7Px-19" value="Fornecer Insights" style="ellipse;whiteSpace=wrap;html=1;labelBackgroundColor=none;" vertex="1" parent="1">
          <mxGeometry x="370" y="670" width="120" height="50" as="geometry" />
        </mxCell>
        <mxCell id="O74vzvm6s8nXJKtiw7Px-20" value="" style="endArrow=none;html=1;rounded=0;exitX=0.5;exitY=0.5;exitDx=0;exitDy=0;exitPerimeter=0;entryX=0;entryY=0.5;entryDx=0;entryDy=0;labelBackgroundColor=none;fontColor=default;" edge="1" parent="1" source="bLp1pUF_GGz9j-9rpTH8-1" target="O74vzvm6s8nXJKtiw7Px-22">
          <mxGeometry width="50" height="50" relative="1" as="geometry">
            <mxPoint x="85" y="610" as="sourcePoint" />
            <mxPoint x="230" y="780" as="targetPoint" />
          </mxGeometry>
        </mxCell>
        <mxCell id="O74vzvm6s8nXJKtiw7Px-22" value="Mantém o&lt;br&gt;Sistema" style="ellipse;whiteSpace=wrap;html=1;labelBackgroundColor=none;" vertex="1" parent="1">
          <mxGeometry x="200" y="710" width="120" height="50" as="geometry" />
        </mxCell>
      </root>
    </mxGraphModel>
  </diagram>
</mxfile>
